# xmcd
#
# Track frame offsets:
#	150
#	11330
#	24477
#	37210
#	51752
#	66905
#	81487
#	95720
#	111110
#	124850
#	137935
#	151107
#	164760
#	177620
#	189442
#	200345
#	215490
#	227397
#	241507
#	253790
#	266160
#	280640
#	293540
#	304912
#
# Disc length: 4225
#
# Revision: 2
# Processed by: cddbd v1.5.1PL0 Copyright (c) Steve Scherf et al.
# Submitted via: DiscPlay 4.0.3
# Normalized: r1:TDELIM( - )
#
DISCID=5c107f18
DTITLE=Various Artist - The Gospel Tradition - The Roots and the Branches Vol. 1
DYEAR=1900
DGENRE=
TTITLE0=Jubilee - Keaton Sextette
TTITLE1=Ship Of Glory - Price Family Sacred Singers
TTITLE2=When God Made Me He Didn't Make A Monkey Man - Brantley and Williams with their Versatile Four
TTITLE3=I'll Play My Harp In Beulah Land - Brothers Wright and Willams
TTITLE4=Now Is The Needy Time - Sister Clara Hudman
TTITLE5=Moan, You Moaners - Bessie Smith
TTITLE6=Church, I'm Fully Saved Today - Blind Willie Washington
TTITLE7=What Are They Doing In Heaven Today - Blind Willie Johnson
TTITLE8=Happy Land of Canaan - Wilmoth Houdini
TTITLE9=On the Rock Where Moses Stood - Carter Family
TTITLE10=NO Disappointment In Heaven - Bob Wills
TTITLE11=Them Bones - Mitchell's Christian Singers
TTITLE12=One More River - Sons of the Pioneers
TTITLE13=Crying Holy Unto The Lord - The Blue Chips
TTITLE14=What A Wonderful Feeling - Humbard Family
TTITLE15=Trouble - Josh White
TTITLE16=Gospel Train - Wright Brothers
TTITLE17=All God's Chillun Got Shoes - The Charioteers
TTITLE18=Jesus At The Well - Sister MYrtle Fields
TTITLE19=Trouble Of This World - The Landfordaires
TTITLE20=Count Your Blessings - Jackson Gospel Singers
TTITLE21=God's Little Birds - Sister O.M. Terrell
TTITLE22=I'm Headed For the Promised Land - Chuck Wagon Gang
TTITLE23=In That Great gettin' Up Morning - Leonard De Paur Infantry Chorus
EXTD=
EXTT0=
EXTT1=
EXTT2=
EXTT3=
EXTT4=
EXTT5=
EXTT6=
EXTT7=
EXTT8=
EXTT9=
EXTT10=
EXTT11=
EXTT12=
EXTT13=
EXTT14=
EXTT15=
EXTT16=
EXTT17=
EXTT18=
EXTT19=
EXTT20=
EXTT21=
EXTT22=
EXTT23=
PLAYORDER=
